<svg width="32" height="24" viewBox="0 0 32 24" fill="none" xmlns="http://www.w3.org/2000/svg">
<path d="M12.9977 3.23452C13.7187 2.49458 13.7187 1.2949 12.9977 0.554956C12.2768 -0.184985 11.1078 -0.184985 10.3869 0.554956L0.540726 10.6602C0.180242 11.0302 0 11.5151 0 12C0 12.2569 0.0498193 12.5019 0.140084 12.7253C0.230176 12.9487 0.363723 13.1581 0.540726 13.3398L10.3869 23.445C11.1078 24.185 12.2768 24.185 12.9977 23.445C13.7187 22.7051 13.7187 21.5054 12.9977 20.7655L6.30316 13.8947H30.1538C31.1734 13.8947 32 13.0464 32 12C32 10.9536 31.1734 10.1053 30.1538 10.1053H6.30316L12.9977 3.23452Z" fill="white"/>
</svg>
