<svg width="32" height="24" viewBox="0 0 32 24" fill="none" xmlns="http://www.w3.org/2000/svg">
<path d="M19.0023 20.7655C18.2813 21.5054 18.2813 22.7051 19.0023 23.445C19.7232 24.185 20.8922 24.185 21.6131 23.445L31.4593 13.3398C31.8198 12.9698 32 12.4849 32 12C32 11.7431 31.9502 11.4981 31.8599 11.2747C31.7698 11.0513 31.6363 10.8419 31.4593 10.6602L21.6131 0.554956C20.8922 -0.184984 19.7232 -0.184984 19.0023 0.554956C18.2813 1.2949 18.2813 2.49458 19.0023 3.23452L25.6968 10.1053L1.84615 10.1053C0.826551 10.1053 0 10.9536 0 12C0 13.0464 0.826551 13.8947 1.84615 13.8947L25.6968 13.8947L19.0023 20.7655Z" fill="white"/>
</svg>
