<svg width="13" height="13" viewBox="0 0 13 13" fill="none" xmlns="http://www.w3.org/2000/svg">
<path d="M1.25615 12.6922H1.32256L4.39964 12.4118C4.73672 12.3782 5.05198 12.2297 5.29251 11.9911L11.9337 5.34996C12.1915 5.07764 12.3308 4.71425 12.3211 4.33941C12.3114 3.96458 12.1535 3.60886 11.882 3.35022L9.86017 1.32835C9.59629 1.08048 9.2505 0.938258 8.88859 0.928734C8.52668 0.91921 8.17389 1.04305 7.89733 1.27669L1.25615 7.91788C1.01763 8.15841 0.869117 8.47368 0.835539 8.81075L0.518238 11.8878C0.508298 11.9959 0.522322 12.1049 0.559311 12.2069C0.5963 12.3089 0.655343 12.4016 0.732232 12.4782C0.801182 12.5466 0.882954 12.6007 0.97286 12.6374C1.06276 12.6741 1.15903 12.6927 1.25615 12.6922ZM8.83448 2.36142L10.849 4.37591L9.37315 5.81484L7.39556 3.83724L8.83448 2.36142ZM2.26708 8.9362L6.42151 4.81128L8.41387 6.80364L4.28158 10.9359L2.06785 11.1425L2.26708 8.9362Z" fill="#868686"/>
</svg>
