<svg width="35" height="27" viewBox="0 0 35 27" fill="none" xmlns="http://www.w3.org/2000/svg">
<path fill-rule="evenodd" clip-rule="evenodd" d="M34.6147 13.4999C34.6147 12.5852 33.8731 11.8437 32.9584 11.8437H2.04175C1.12703 11.8437 0.385498 12.5852 0.385498 13.4999C0.385498 14.4146 1.12703 15.1562 2.04175 15.1562H32.9584C33.8731 15.1562 34.6147 14.4146 34.6147 13.4999Z" fill="white"/>
<path fill-rule="evenodd" clip-rule="evenodd" d="M34.6147 2.45825C34.6147 1.54353 33.8731 0.802002 32.9584 0.802002H2.04175C1.12703 0.802002 0.385498 1.54353 0.385498 2.45825C0.385498 3.37297 1.12703 4.1145 2.04175 4.1145H32.9584C33.8731 4.1145 34.6147 3.37297 34.6147 2.45825Z" fill="white"/>
<path fill-rule="evenodd" clip-rule="evenodd" d="M34.6147 24.5416C34.6147 23.6269 33.8731 22.8853 32.9584 22.8853H2.04175C1.12703 22.8853 0.385498 23.6269 0.385498 24.5416C0.385498 25.4563 1.12703 26.1978 2.04175 26.1978H32.9584C33.8731 26.1978 34.6147 25.4563 34.6147 24.5416Z" fill="white"/>
</svg>
