<svg width="17" height="20" viewBox="0 0 17 20" fill="none" xmlns="http://www.w3.org/2000/svg">
<path d="M14.4308 1.50806C13.5048 0.452532 11.8308 0 9.6892 0H3.47378C3.26189 7.84567e-06 3.05696 0.0756018 2.89582 0.213191C2.73468 0.35078 2.62791 0.54134 2.5947 0.750609L0.00671586 17.1642C-0.0447248 17.4879 0.205899 17.781 0.53395 17.781H4.37113L5.33482 11.6685L5.30491 11.8599C5.37356 11.4279 5.74308 11.1092 6.18066 11.1092H8.00408C11.5862 11.1092 14.391 9.65424 15.2104 5.44534C15.2347 5.32086 15.2558 5.1997 15.274 5.08133C15.1706 5.02657 15.1706 5.02657 15.274 5.08133C15.5179 3.52568 15.2723 2.46676 14.4308 1.50806Z" fill="black"/>
<path d="M6.80307 4.52093C6.90797 4.47098 7.02271 4.4451 7.1389 4.44517H12.0117C12.5887 4.44517 13.1269 4.48272 13.6187 4.56187C13.7563 4.58382 13.8932 4.61001 14.0292 4.64043C14.222 4.68296 14.4125 4.73502 14.6001 4.79641C14.8419 4.87716 15.0671 4.97121 15.274 5.08133C15.5179 3.52508 15.2723 2.46676 14.4308 1.50806C13.5042 0.452532 11.8308 0 9.6892 0H3.47325C3.0356 0 2.66329 0.318613 2.5947 0.750609L0.00671623 17.1636C-0.0447245 17.4878 0.205899 17.7805 0.533418 17.7805H4.37113L6.37048 5.1018C6.39013 4.97718 6.43978 4.8592 6.51513 4.75801C6.59049 4.65683 6.6893 4.57547 6.80307 4.52093Z" fill="black"/>
<path d="M15.2105 5.4453C14.3911 9.65361 11.5863 11.1092 8.00417 11.1092H6.18022C5.74264 11.1092 5.37305 11.4278 5.30506 11.8599L4.10617 19.46C4.06138 19.7433 4.28043 20 4.56701 20H7.80166C7.98695 19.9999 8.16615 19.9338 8.30702 19.8134C8.44789 19.693 8.54119 19.5263 8.57015 19.3433L8.60165 19.1785L9.21129 15.3147L9.25057 15.1012C9.27953 14.9182 9.37282 14.7515 9.51368 14.6312C9.65454 14.5108 9.83371 14.4446 10.019 14.4446H10.5031C13.6365 14.4446 16.0901 13.1716 16.807 9.48991C17.1063 7.95134 16.9515 6.66679 16.1598 5.76452C15.9197 5.49123 15.6214 5.26553 15.2741 5.0813C15.2552 5.20026 15.2348 5.32082 15.2105 5.4453Z" fill="#2790C3"/>
<path d="M14.4165 4.73943C14.2887 4.70212 14.1598 4.66909 14.0298 4.6404C13.8937 4.61048 13.7568 4.58446 13.6193 4.56237C13.1269 4.48269 12.5891 4.44507 12.0116 4.44507H7.13941C7.02313 4.44481 6.90831 4.47092 6.80358 4.52143C6.68969 4.5758 6.59076 4.65711 6.51537 4.75833C6.43998 4.85954 6.3904 4.97761 6.37092 5.1023L5.33533 11.6685L5.30542 11.8599C5.37354 11.4278 5.74306 11.1092 6.18071 11.1092H8.00466C11.5868 11.1092 14.3915 9.65421 15.2109 5.44531C15.2353 5.32083 15.2557 5.2002 15.2745 5.0813C15.0671 4.97177 14.8425 4.87713 14.6006 4.79691C14.5396 4.77668 14.4782 4.75752 14.4165 4.73943" fill="#1F264F"/>
</svg>
