<svg width="35" height="36" viewBox="0 0 35 36" fill="none" xmlns="http://www.w3.org/2000/svg">
<path d="M30.6248 24H10.2082C9.8214 24 9.45046 23.842 9.17697 23.5607C8.90348 23.2794 8.74984 22.8978 8.74984 22.5C8.74984 22.1022 8.90348 21.7206 9.17697 21.4393C9.45046 21.158 9.8214 21 10.2082 21H25.4332C26.4083 21.0001 27.3555 20.665 28.1243 20.0481C28.8932 19.4312 29.4396 18.5678 29.6769 17.595L32.0832 7.86C32.1378 7.63861 32.1425 7.40732 32.097 7.18376C32.0516 6.9602 31.957 6.75028 31.8207 6.57C31.6788 6.3851 31.4967 6.23715 31.2889 6.13812C31.0812 6.03909 30.8537 5.99178 30.6248 6H9.85817C9.5573 5.12468 9.00057 4.3665 8.26431 3.82941C7.52805 3.29232 6.6483 3.00261 5.74567 3H4.37484C3.98806 3 3.61713 3.15804 3.34364 3.43934C3.07015 3.72064 2.9165 4.10218 2.9165 4.5C2.9165 4.89782 3.07015 5.27936 3.34364 5.56066C3.61713 5.84196 3.98806 6 4.37484 6H5.74567C6.0788 5.99002 6.40521 6.0977 6.67055 6.30512C6.93589 6.51254 7.12416 6.80719 7.204 7.14L7.2915 7.86L9.81442 18C8.6541 18.0537 7.56204 18.5793 6.77849 19.4612C5.99494 20.3431 5.58408 21.509 5.6363 22.7025C5.68851 23.896 6.19952 25.0192 7.05691 25.8252C7.91431 26.6311 9.04785 27.0537 10.2082 27H10.4707C10.2308 27.6797 10.1538 28.4088 10.246 29.1257C10.3382 29.8425 10.597 30.5259 11.0005 31.118C11.404 31.7102 11.9403 32.1936 12.5639 32.5273C13.1875 32.861 13.8802 33.0353 14.5832 33.0353C15.2862 33.0353 15.9788 32.861 16.6024 32.5273C17.2261 32.1936 17.7624 31.7102 18.1658 31.118C18.5693 30.5259 18.8281 29.8425 18.9204 29.1257C19.0126 28.4088 18.9355 27.6797 18.6957 27H22.1373C21.8975 27.6797 21.8204 28.4088 21.9127 29.1257C22.0049 29.8425 22.2637 30.5259 22.6672 31.118C23.0707 31.7102 23.6069 32.1936 24.2306 32.5273C24.8542 32.861 25.5468 33.0353 26.2498 33.0353C26.9528 33.0353 27.6455 32.861 28.2691 32.5273C28.8928 32.1936 29.429 31.7102 29.8325 31.118C30.236 30.5259 30.4948 29.8425 30.587 29.1257C30.6793 28.4088 30.6022 27.6797 30.3623 27H30.6248C31.0116 27 31.3825 26.842 31.656 26.5607C31.9295 26.2794 32.0832 25.8978 32.0832 25.5C32.0832 25.1022 31.9295 24.7206 31.656 24.4393C31.3825 24.158 31.0116 24 30.6248 24ZM28.7582 9L26.8478 16.86C26.7679 17.1928 26.5796 17.4875 26.3143 17.6949C26.049 17.9023 25.7226 18.01 25.3894 18H12.804L10.6165 9H28.7582ZM14.5832 30C14.2947 30 14.0128 29.912 13.773 29.7472C13.5331 29.5824 13.3462 29.3481 13.2358 29.074C13.1255 28.7999 13.0966 28.4983 13.1529 28.2074C13.2091 27.9164 13.348 27.6491 13.552 27.4393C13.7559 27.2296 14.0158 27.0867 14.2987 27.0288C14.5816 26.9709 14.8748 27.0006 15.1413 27.1142C15.4077 27.2277 15.6355 27.42 15.7957 27.6666C15.956 27.9133 16.0415 28.2033 16.0415 28.5C16.0415 28.8978 15.8879 29.2794 15.6144 29.5607C15.3409 29.842 14.9699 30 14.5832 30ZM26.2498 30C25.9614 30 25.6795 29.912 25.4396 29.7472C25.1998 29.5824 25.0129 29.3481 24.9025 29.074C24.7921 28.7999 24.7633 28.4983 24.8195 28.2074C24.8758 27.9164 25.0147 27.6491 25.2186 27.4393C25.4226 27.2296 25.6824 27.0867 25.9653 27.0288C26.2482 26.9709 26.5414 27.0006 26.8079 27.1142C27.0744 27.2277 27.3022 27.42 27.4624 27.6666C27.6226 27.9133 27.7082 28.2033 27.7082 28.5C27.7082 28.8978 27.5545 29.2794 27.281 29.5607C27.0075 29.842 26.6366 30 26.2498 30Z" fill="black"/>
</svg>
