<svg width="29" height="29" viewBox="0 0 29 29" fill="none" xmlns="http://www.w3.org/2000/svg">
<path d="M14.5001 12.4687C15.1732 12.4687 15.7188 13.0144 15.7188 13.6875V21.8125C15.7188 22.4856 15.1732 23.0312 14.5001 23.0312C13.827 23.0312 13.2813 22.4856 13.2813 21.8125L13.2813 13.6875C13.2813 13.0144 13.827 12.4687 14.5001 12.4687Z" fill="black"/>
<path d="M14.5001 9.62496C15.3976 9.62496 16.1251 8.89742 16.1251 7.99996C16.1251 7.10249 15.3976 6.37496 14.5001 6.37496C13.6026 6.37496 12.8751 7.10249 12.8751 7.99996C12.8751 8.89742 13.6026 9.62496 14.5001 9.62496Z" fill="black"/>
<path fill-rule="evenodd" clip-rule="evenodd" d="M6.88978 1.12418C11.9071 0.563425 17.0931 0.563425 22.1103 1.12418C25.0782 1.45588 27.4749 3.79368 27.8241 6.77874C28.4241 11.9087 28.4241 17.0912 27.8241 22.2212C27.4749 25.2062 25.0782 27.544 22.1103 27.8757C17.0931 28.4365 11.9071 28.4365 6.88978 27.8757C3.92191 27.544 1.5252 25.2062 1.17607 22.2212C0.576074 17.0912 0.576074 11.9087 1.17607 6.77874C1.5252 3.79368 3.92191 1.45588 6.88978 1.12418ZM21.8396 3.5466C17.0023 3.00595 11.9979 3.00595 7.16052 3.5466C5.30082 3.75445 3.81224 5.22222 3.59707 7.0619C3.01908 12.0038 3.01908 16.9961 3.59707 21.938C3.81224 23.7777 5.30082 25.2455 7.16052 25.4533C11.9979 25.994 17.0023 25.994 21.8396 25.4533C23.6993 25.2455 25.1879 23.7777 25.4031 21.938C25.9811 16.9962 25.9811 12.0038 25.4031 7.0619C25.1879 5.22222 23.6993 3.75445 21.8396 3.5466Z" fill="black"/>
</svg>
