<svg width="25" height="30" viewBox="0 0 25 30" fill="none" xmlns="http://www.w3.org/2000/svg">
<path d="M11.6624 12.804C10.2646 12.804 8.92408 12.2487 7.93572 11.2603C6.94735 10.272 6.39209 8.93146 6.39209 7.5337C6.39209 6.13594 6.94735 4.79542 7.93572 3.80705C8.92408 2.81869 10.2646 2.26343 11.6624 2.26343C13.0601 2.26343 14.4006 2.81869 15.389 3.80705C16.3774 4.79542 16.9326 6.13594 16.9326 7.5337C16.9326 8.93146 16.3774 10.272 15.389 11.2603C14.4006 12.2487 13.0601 12.804 11.6624 12.804Z" stroke="black" stroke-width="3" stroke-linecap="round"/>
<path d="M2 27.7363V25.6282C2 23.3918 2.74035 21.247 4.05817 19.6656C5.37599 18.0842 7.16334 17.1958 9.02703 17.1958H16.0541C17.9177 17.1958 19.7051 18.0842 21.0229 19.6656C22.3407 21.247 23.0811 23.3918 23.0811 25.6282V27.7363" stroke="black" stroke-width="3" stroke-linecap="round"/>
</svg>
