<svg width="45" height="20" viewBox="0 0 45 20" fill="none" xmlns="http://www.w3.org/2000/svg">
<path d="M17.0585 0.256237L11.1761 14.2892H7.33856L4.44378 3.08959C4.26828 2.40143 4.11576 2.14818 3.5817 1.85719C2.70874 1.38298 1.26714 0.939477 0 0.663584L0.0854708 0.256237H6.26394C7.0502 0.256237 7.75819 0.779768 7.93826 1.68625L9.46778 9.80738L13.2439 0.256237H17.0585ZM22.2465 0.256237L19.2448 14.2892H15.614L18.616 0.256237H22.2466H22.2465ZM32.0951 9.70752C32.1102 6.00455 26.9749 5.79903 27.0084 4.14455C27.0207 3.64155 27.4998 3.10608 28.5487 2.96919C29.0682 2.90197 30.5034 2.84844 32.1291 3.5975L32.7652 0.619883C31.8917 0.303974 30.7676 0 29.3693 0C25.7803 0 23.2556 1.90633 23.2354 4.63824C23.2119 6.659 25.0387 7.78522 26.4126 8.45828C27.8277 9.14555 28.3023 9.5873 28.2958 10.2016C28.2856 11.1431 27.1655 11.56 26.1242 11.5754C24.2983 11.6044 23.2398 11.0819 22.3955 10.6886L21.7364 13.7648C22.5859 14.1541 24.1514 14.4923 25.7729 14.5095C29.5884 14.5095 32.0839 12.6251 32.0951 9.7077V9.70752ZM41.5723 14.2892H44.9292L41.9965 0.256237H38.8994C38.2009 0.256237 37.6138 0.661653 37.3534 1.28487L31.9057 14.2892H35.7182L36.4745 12.193H41.1324L41.5725 14.2892H41.5723ZM37.5199 9.31737L39.4315 4.04749L40.5297 9.31737H37.5198H37.5199ZM26.8931 18.1519H25.4178V19.5249H27.0679V19.9377H24.9208V16.1289H26.9833V16.5417H25.4178V17.7451H26.893V18.1523L26.8931 18.1519ZM27.8301 15.9255H28.3272V19.9375H27.8301V15.9255ZM29.5813 18.6604C29.5926 19.3331 30.0166 19.6099 30.5192 19.6099C30.8755 19.6099 31.0958 19.5477 31.2769 19.4687L31.3671 19.8248C31.1919 19.9038 30.8869 19.9998 30.4515 19.9998C29.6098 19.9998 29.1069 19.4405 29.1069 18.6153C29.1069 17.7904 29.5926 17.1459 30.3895 17.1459C31.2881 17.1459 31.5198 17.9261 31.5198 18.4289C31.5198 18.5305 31.514 18.6039 31.5026 18.6605H29.5813V18.6604ZM31.0393 18.3044C31.045 17.9938 30.9094 17.502 30.3499 17.502C29.8413 17.502 29.6264 17.9598 29.5868 18.3044H31.0393ZM34.2254 19.8415C34.0955 19.9038 33.8071 20 33.44 20C32.6149 20 32.0781 19.4405 32.0781 18.604C32.0781 17.762 32.6542 17.1461 33.5472 17.1461C33.841 17.1461 34.1009 17.2193 34.2366 17.293L34.1239 17.6716C34.0048 17.6094 33.8184 17.5414 33.5472 17.5414C32.9198 17.5414 32.5811 18.0105 32.5811 18.576C32.5811 19.2086 32.9879 19.5986 33.5304 19.5986C33.8129 19.5986 33.9993 19.5309 34.1406 19.4687L34.2254 19.8415V19.8415ZM35.6203 16.5469V17.2025H36.3321V17.5808H35.6203V19.056C35.6203 19.3954 35.7165 19.5872 35.9932 19.5872C36.1287 19.5872 36.208 19.5762 36.2816 19.5532L36.3042 19.9323C36.208 19.966 36.0555 19.9998 35.8634 19.9998C35.6315 19.9998 35.445 19.9207 35.3265 19.791C35.1908 19.6381 35.1343 19.3954 35.1343 19.0732V17.5808H34.7103V17.2025H35.1343V16.694L35.6205 16.5471L35.6203 16.5469ZM37.0266 18.0559C37.0266 17.7337 37.0206 17.4569 37.004 17.2025H37.4392L37.462 17.7448H37.4785C37.6031 17.3778 37.908 17.1459 38.2413 17.1459C38.2923 17.1459 38.332 17.1517 38.3773 17.1572V17.6265C38.3264 17.6149 38.2757 17.6149 38.2074 17.6149C37.8574 17.6149 37.6084 17.8748 37.5408 18.2481C37.5292 18.3248 37.5235 18.4022 37.5238 18.4798V19.9379H37.0266V18.0559V18.0559ZM41.4337 18.5473C41.4337 19.559 40.7271 19.9998 40.0718 19.9998C39.3369 19.9998 38.7608 19.4572 38.7608 18.5928C38.7608 17.6828 39.3654 17.1461 40.1171 17.1461C40.9024 17.1461 41.4337 17.7165 41.4337 18.5475V18.5473ZM39.2692 18.5758C39.2692 19.1748 39.6083 19.6271 40.0942 19.6271C40.5692 19.6271 40.9249 19.1802 40.9249 18.5644C40.9249 18.101 40.6932 17.5187 40.1055 17.5187C39.5237 17.5187 39.2692 18.0615 39.2692 18.5758ZM42.1957 17.9427C42.1957 17.6547 42.1898 17.4285 42.1729 17.2026H42.6138L42.6421 17.6547H42.6533C42.7889 17.4002 43.1054 17.1461 43.5575 17.1461C43.9359 17.1461 44.5238 17.3722 44.5238 18.3099V19.9377H44.0266V18.361C44.0266 17.9204 43.8627 17.5528 43.3937 17.5528C43.0715 17.5528 42.817 17.7846 42.727 18.0614C42.7042 18.1237 42.6929 18.2083 42.6929 18.2932V19.9377H42.1957V17.9427Z" fill="#9239C8"/>
</svg>
